<svg id="Layer_1" data-name="Layer 1" xmlns="http://www.w3.org/2000/svg" viewBox="0 0 504.22 280.25"><defs><style>.cls-1{fill:#fee91c;}.cls-2{fill:#efd21a;}.cls-3{fill:#d3ab89;}.cls-4{fill:#bb906f;}.cls-5{fill:#efd21c;}.cls-6{fill:#ed1c24;stroke:#d32027;stroke-width:2px;}.cls-6,.cls-7{stroke-miterlimit:10;}.cls-7{fill:#fff;stroke:#231f20;stroke-width:0.75px;}</style></defs><path class="cls-1" d="M122.42,66.26a276.93,276.93,0,0,0-69.14,42.33,1.66,1.66,0,0,0-.63.79c-.27.94,1,1.51,2,1.67l10.21,1.62c1.43.22,3.11.65,3.58,2a5.16,5.16,0,0,1,0,2.31,9.22,9.22,0,0,0,2.87,7.86c1.28,1.16,3.29,1.94,4.71,1s1.36-3.12,1-4.82-.83-3.66.23-5.06,3.31-1.5,5.17-1.39l14.26.89a4.26,4.26,0,0,1,3,1,4.32,4.32,0,0,1,.75,2.45,8.16,8.16,0,0,0,1.49,4.42c1,1.21,2.92,1.83,4.23,1s1.47-2.55,1.16-4-1.06-2.75-1.37-4.18a2.34,2.34,0,0,1,0-1.23c.37-1.09,1.79-1.33,3-1.37l16.78-.61a6.1,6.1,0,0,1,3.09.44c1.69.92,2,3.19,1.83,5.09s-.81,3.86-.27,5.7a5,5,0,0,0,6.79,2.93,4.83,4.83,0,0,0,1.46-7.14c-.6-.69-1.4-1.19-2-1.9-1.15-1.43-3.67-4.91-2.54-6.35" transform="translate(356.27 129.91)"/><path class="cls-2" d="M121.16,64.1A286.53,286.53,0,0,0,75,89.14q-10.92,7.32-21.09,15.69c-1.65,1.36-4,2.72-3.73,5.16s2.53,3.27,4.53,3.58l7.05,1.12c1,.16,2.08.29,3.1.51.34.07.68.23,1,.27s.35.34.23.06-.1.59-.13.79a14.21,14.21,0,0,0-.16,1.6,11.94,11.94,0,0,0,.37,3.09,11.76,11.76,0,0,0,3,5.33,7.52,7.52,0,0,0,5.59,2.38,5.17,5.17,0,0,0,4.61-3.78c.57-2,0-3.83-.28-5.76-.21-1.32-.19-2,1.24-2.17a39.32,39.32,0,0,1,6.41.29l7.37.46c1,.06,2,0,2.92.17.17,0,.82.25.71.14s.08.46.11.64c.34,2.1.53,4.09,1.85,5.86,2.7,3.62,8.76,3.44,10-1.41.52-2.13-.12-4.07-.85-6.06a6.47,6.47,0,0,0-.47-1.47l0-.21a.76.76,0,0,1-.27.57c0-.52-.09.2-.15.15s.87-.14,1-.15c.66,0,1.32,0,2-.07l14.31-.52a5.65,5.65,0,0,1,2.32.08c.41.2.55.72.63,1.31.23,1.72-.47,3.61-.52,5.37a7.53,7.53,0,0,0,7.11,7.82,7,7,0,0,0,7.3-6.49,6.9,6.9,0,0,0-1.5-5.13c-.56-.68-1.29-1.19-1.89-1.84-.12-.12-.22-.25-.33-.38-.24-.29.21.27-.07-.08s-.47-.64-.69-1a12.18,12.18,0,0,1-1-1.79c-.08-.18-.14-.56-.25-.79.1.2-.12.24,0-.07,0,0-.4,1-.06.47,1.77-2.7-2.56-5.2-4.32-2.52-1.29,2-.33,4.44.73,6.27a22.06,22.06,0,0,0,1.72,2.49c.71.91,1.82,1.64,2.43,2.5a2.23,2.23,0,1,1-3.94,2,5,5,0,0,1-.1-2.85,18.45,18.45,0,0,0,.39-4.06c-.2-2.63-1.45-5.12-4.06-6a10.63,10.63,0,0,0-3.89-.35l-4.94.18-9.37.34c-2.58.09-5.74,0-7.08,2.68a5.66,5.66,0,0,0,.12,4.42c.37,1.08,1.21,2.45,1,3.63a3.29,3.29,0,0,0-.07.36c0,.61-.38.16,0,.09a1.27,1.27,0,0,1-.47,0c-.84-.27-1.12-1.35-1.29-2.12-.27-1.12-.23-2.32-.6-3.42a5,5,0,0,0-3.22-3.23,16.08,16.08,0,0,0-4.16-.52l-4.67-.29c-3-.19-6.13-.53-9.18-.55-2.62,0-5.38.78-6.62,3.3s-.08,4.81,0,7.36a8.39,8.39,0,0,1-.05,1c0,.36-.31.29-.07.17s-.09,0-.3,0a4.33,4.33,0,0,1-2.3-1.89,6.61,6.61,0,0,1-1.13-3.35c-.08-1.51.49-3,0-4.49-1-3.17-4.45-3.61-7.27-4l-5.35-.85c-.81-.13-1.62-.25-2.43-.39a5.94,5.94,0,0,0-.93-.17q-.21-.11-.15,0a6,6,0,0,0,.46.87l-.35,1.27c.39-.8,1.91-1.69,2.63-2.29l3.1-2.52q3.06-2.43,6.2-4.77,6.38-4.75,13-9.1a284.6,284.6,0,0,1,27.56-15.91q8.07-4.08,16.37-7.64a2.52,2.52,0,0,0,.9-3.42,2.56,2.56,0,0,0-3.42-.9Z" transform="translate(356.27 129.91)"/><path class="cls-3" d="M123.28,72.77a5.5,5.5,0,0,0-.31-1,9,9,0,0,1-.54-6,6.55,6.55,0,0,1,4.89-4.95,6.63,6.63,0,0,1,3.65.46,8.85,8.85,0,0,1,4.74,4.56,8.73,8.73,0,0,1,.17,6.55,1.17,1.17,0,0,0-.11.61,1.12,1.12,0,0,0,.46.58c3.73,3,5.65,7.71,6.71,12.35.67,2.9,1,6.25-.95,8.55a1.86,1.86,0,0,0-.38.59c-.13.49.27,1,.61,1.33a12.65,12.65,0,0,1,1,15.63,5.48,5.48,0,0,1-2,1.79,5.23,5.23,0,0,1-2.74.41c-3.67-.33-6.79-3.08-8.38-6.38s-1.84-7.06-1.7-10.71a5.47,5.47,0,0,0-.16-2,5.39,5.39,0,0,0-1-1.55c-1.42-1.85-2.82-3.9-2.91-6.22-.08-1.83.69-3.6.9-5.42.32-2.78-.66-5.51-1.7-8.12a7.17,7.17,0,0,1-.3-1Z" transform="translate(356.27 129.91)"/><path class="cls-4" d="M125.69,72.1c-.43-1.85-1.32-3.35-1-5.31a4.48,4.48,0,0,1,2.52-3.47c3.15-1.19,6.37,2.45,6.65,5.28.22,2.15-1.43,4.21.07,6.15.62.8,1.52,1.4,2.2,2.15a15,15,0,0,1,1.58,2.21A22.09,22.09,0,0,1,141,89.79a5.67,5.67,0,0,1-.33,2.08c-.41,1-1.28,1.66-1.46,2.79-.34,2.17,1.6,3.49,2.54,5.21a10.32,10.32,0,0,1,.43,9c-.64,1.41-1.55,2.87-3.25,2.78a6.89,6.89,0,0,1-4.17-1.84c-2.91-2.63-3.75-6.57-3.84-10.35-.06-2.56.33-4.89-1.31-7.07-1.2-1.59-2.78-3.43-2.69-5.55a30.26,30.26,0,0,1,.72-3.63,13.43,13.43,0,0,0,.12-4.1,19.36,19.36,0,0,0-.89-3.83,28.27,28.27,0,0,1-1.13-3.2,2.53,2.53,0,0,0-3.07-1.75,2.55,2.55,0,0,0-1.75,3.08c.53,2.59,2,4.8,2,7.53a23.33,23.33,0,0,1-.72,3.87,10.26,10.26,0,0,0,.11,4.74,13.1,13.1,0,0,0,1.69,3.54,19.28,19.28,0,0,1,1.94,2.69,4.84,4.84,0,0,1,0,1.7c0,.66,0,1.32,0,2a32.15,32.15,0,0,0,.42,4.38c.88,5.24,4,10.12,9.06,12.1,2.45,1,5.54,1.1,7.78-.46a11.8,11.8,0,0,0,4.15-6.15,15.61,15.61,0,0,0-1.09-11.69,13.84,13.84,0,0,0-.92-1.51c-.22-.31-.46-.62-.71-.93l-.33-.41c-.3-.4-.33-.34-.12.18l-.34,1.27a29.24,29.24,0,0,0,1.62-2.92A11,11,0,0,0,146,90a23.39,23.39,0,0,0-1.09-6.73,28.78,28.78,0,0,0-2.59-6.32,21.59,21.59,0,0,0-2-3,14.91,14.91,0,0,0-1.2-1.31c-.3-.3-.91-.64-1.1-1l.34,1.27c0-.41.43-1.37.52-2a11.08,11.08,0,0,0,.08-2.76,11.09,11.09,0,0,0-10.52-10,8.61,8.61,0,0,0-7.68,5.12,11.09,11.09,0,0,0-1,5.11c.09,1.82.81,3.32,1.22,5.05C121.61,76.56,126.44,75.23,125.69,72.1Z" transform="translate(356.27 129.91)"/><path class="cls-1" d="M74.91,132.41a1.78,1.78,0,0,0-2.31-.35,3.46,3.46,0,0,0-1.42,2.06,3.83,3.83,0,0,0-.13,2,2.14,2.14,0,0,0,1.27,1.53c1.05.37,2.19-.32,3.31-.24a6.79,6.79,0,0,0,1.34.15,2.22,2.22,0,0,0,1.21-.63,2.2,2.2,0,0,0,.81-1.53A2,2,0,0,0,78.2,134a6.26,6.26,0,0,0-1.54-.8l-1.79-.72" transform="translate(356.27 129.91)"/><path class="cls-5" d="M77.07,131.15a4.14,4.14,0,0,0-2.5-1.75,4.72,4.72,0,0,0-3,.4,5.94,5.94,0,0,0-2.86,4.09,6.25,6.25,0,0,0,0,3,4.88,4.88,0,0,0,1.9,2.64,4.3,4.3,0,0,0,2.63.72c.84,0,1.63-.28,2.46-.4L75,140a3.39,3.39,0,0,1,.78,0l-.66-.09a7.69,7.69,0,0,0,2.53.13,4.4,4.4,0,0,0,1.88-.91,4.63,4.63,0,0,0,2-3.91,4.77,4.77,0,0,0-2.57-3.75A33.26,33.26,0,0,0,75.53,130a2.51,2.51,0,0,0-2.82,3.68,2.83,2.83,0,0,0,1.49,1.14l2.17.87-.6-.25a5.49,5.49,0,0,1,1.16.65l-.5-.39a3.05,3.05,0,0,1,.43.45l-.39-.51a2.61,2.61,0,0,1,.24.43l-.25-.59a1.79,1.79,0,0,1,.1.35l-.09-.67a1.53,1.53,0,0,1,0,.37l.09-.66a2,2,0,0,1-.12.48l.25-.6a3.08,3.08,0,0,1-.33.55l.4-.51a4,4,0,0,1-.55.54l.51-.39a3.06,3.06,0,0,1-.54.34l.6-.25a2.52,2.52,0,0,1-.49.13l.67-.09a3.25,3.25,0,0,1-.54,0l.67.09a8.09,8.09,0,0,0-2.45-.15c-.63.09-1.25.25-1.88.34l.67-.09a3.14,3.14,0,0,1-.75,0l.66.09a2,2,0,0,1-.47-.14l.6.26a3.26,3.26,0,0,1-.4-.24l.51.39a2.42,2.42,0,0,1-.32-.32l.39.5a2.36,2.36,0,0,1-.35-.59l.25.59a4,4,0,0,1-.16-.62l.09.67a4.31,4.31,0,0,1,0-.88l-.09.66a5.92,5.92,0,0,1,.4-1.44l-.25.59A3.93,3.93,0,0,1,74,134l-.39.51a3.08,3.08,0,0,1,.51-.51l-.5.39a3,3,0,0,1,.38-.23l-.59.25a2.63,2.63,0,0,1,.5-.14l-.67.09a2.57,2.57,0,0,1,.62,0l-.66-.08a2.79,2.79,0,0,1,.39.1l-.6-.25a2.33,2.33,0,0,1,.34.2l-.5-.39.21.21-.39-.51.06.09a2.69,2.69,0,0,0,1.49,1.14,2.5,2.5,0,0,0,1.93-.25,2.53,2.53,0,0,0,1.15-1.49,2.45,2.45,0,0,0-.25-1.93Z" transform="translate(356.27 129.91)"/><path class="cls-1" d="M75,142.76a2.3,2.3,0,0,0-1.42,1.18,2.86,2.86,0,0,0-.2,2.86,2.38,2.38,0,0,0,2.84.88,3.13,3.13,0,0,0,1.86-2.44,1.51,1.51,0,0,0-.08-.94,1.62,1.62,0,0,0-.59-.6,4.49,4.49,0,0,0-2.53-.75" transform="translate(356.27 129.91)"/><path class="cls-5" d="M74.33,140.35a4.68,4.68,0,0,0-2.67,2,4.42,4.42,0,0,0-.43.72,6.2,6.2,0,0,0-.52,1.44,5.44,5.44,0,0,0-.13,1.45,5.37,5.37,0,0,0,.55,2A4.29,4.29,0,0,0,73,149.76a4.94,4.94,0,0,0,2.61.56,4.82,4.82,0,0,0,1.31-.25,5.87,5.87,0,0,0,1.71-1A4.85,4.85,0,0,0,80,147.33a5.38,5.38,0,0,0,.51-3.39,4.2,4.2,0,0,0-2.42-2.73,7.46,7.46,0,0,0-3.21-.76,2.5,2.5,0,0,0-1.77,4.26,2.6,2.6,0,0,0,1.77.74,4.87,4.87,0,0,1,.66,0l-.66-.09a5,5,0,0,1,1.13.31l-.6-.25a4.29,4.29,0,0,1,.93.53l-.51-.39a2.37,2.37,0,0,1,.28.27l-.39-.5a1.35,1.35,0,0,1,.15.26l-.25-.59a1.57,1.57,0,0,1,.08.31l-.09-.67a2.69,2.69,0,0,1,0,.49l.09-.67a4,4,0,0,1-.23.84l.25-.6a3.24,3.24,0,0,1-.43.74l.39-.5a3.51,3.51,0,0,1-.54.55l.5-.39a3.37,3.37,0,0,1-.61.36l.6-.25a2.91,2.91,0,0,1-.58.15l.67-.09a3,3,0,0,1-.73,0l.67.09a2.45,2.45,0,0,1-.64-.18l.6.25a2.5,2.5,0,0,1-.5-.29l.51.39a1.8,1.8,0,0,1-.36-.37l.39.51a2.46,2.46,0,0,1-.25-.45l.25.6a2.3,2.3,0,0,1-.14-.53l.09.67a3.37,3.37,0,0,1,0-.71l-.08.67a3.39,3.39,0,0,1,.26-.93l-.26.6a4.3,4.3,0,0,1,.47-.8l-.39.51a3.41,3.41,0,0,1,.46-.47l-.51.39A2.43,2.43,0,0,1,76,145l-.6.26a2.29,2.29,0,0,1,.28-.09A2.52,2.52,0,0,0,77.15,144a2.48,2.48,0,0,0,.25-1.92,2.54,2.54,0,0,0-1.14-1.5,2.75,2.75,0,0,0-1.93-.25Z" transform="translate(356.27 129.91)"/><ellipse class="cls-6" cx="481.65" cy="238.6" rx="3.64" ry="3.61"/><ellipse class="cls-6" cx="419.74" cy="236.48" rx="3.06" ry="3.03"/><ellipse class="cls-6" cx="474.25" cy="222.4" rx="3.16" ry="3.14"/><ellipse class="cls-6" cx="468.04" cy="207.41" rx="4.26" ry="4.22"/><ellipse class="cls-6" cx="439.13" cy="222.4" rx="3.16" ry="3.14"/><ellipse class="cls-6" cx="456.58" cy="228.76" rx="3.49" ry="3.46"/><ellipse class="cls-6" cx="434.38" cy="240.63" rx="3.49" ry="3.46"/><path class="cls-7" d="M58.36,92.58a2.91,2.91,0,0,1-.63-1.28,2.84,2.84,0,0,1,.11-1.54,2.69,2.69,0,0,1,.26-.54,3.25,3.25,0,0,1,.38-.49,4.66,4.66,0,0,1,.51-.47,3.32,3.32,0,0,1,2.53-.82,3.44,3.44,0,0,1,1.15.35,2.78,2.78,0,0,1,.87.73,2.74,2.74,0,0,1,.61,2.16,3.29,3.29,0,0,1-1.34,2.15,3.46,3.46,0,0,1-2.37.81A2.85,2.85,0,0,1,58.36,92.58Zm2-1.58a3,3,0,0,0,1,.87.63.63,0,0,0,.66-.08.61.61,0,0,0,.24-.61,2.88,2.88,0,0,0-.68-1.12,3.1,3.1,0,0,0-1-.87.65.65,0,0,0-.68.09.58.58,0,0,0-.23.61A2.93,2.93,0,0,0,60.33,91Z" transform="translate(356.27 129.91)"/><path class="cls-7" d="M68.56,88.43c-.86.61-1.72,1.24-2.57,1.86l-.85-1.08.38-.28-1.88-2.34-.39.29-.88-1.07c.86-.64,1.73-1.28,2.61-1.91l.67-.47.55-.34.45-.22a2.09,2.09,0,0,1,1.2-.15,1.63,1.63,0,0,1,1,.6,1.45,1.45,0,0,1,.3.78,1.33,1.33,0,0,1-.19.78l1.48.59.35-.24c.28.36.55.73.83,1.1l-1.75,1.2-2.49-1.12-.59.42.6.77.36-.26Zm-3.14-3.28.69.86.2-.15a5.21,5.21,0,0,0,.54-.42.52.52,0,0,0,.16-.32.43.43,0,0,0-.11-.36.53.53,0,0,0-.33-.2.58.58,0,0,0-.38.07,5.39,5.39,0,0,0-.6.39Z" transform="translate(356.27 129.91)"/><path class="cls-7" d="M74.38,84.49c-.77.5-1.54,1-2.3,1.51l-.83-1.1.39-.26C71,83.83,70.42,83,69.8,82.23l-.39.27-.85-1.1c.79-.54,1.6-1.08,2.41-1.61A8.26,8.26,0,0,1,72.41,79a3.46,3.46,0,0,1,1.3-.26,2.81,2.81,0,0,1,1.34.34,3.1,3.1,0,0,1,1.08.93,2.75,2.75,0,0,1,.52,1.3,2.3,2.3,0,0,1-.16,1.21,2.6,2.6,0,0,1-.66.92A12.49,12.49,0,0,1,74.38,84.49Zm-2.63-3.55c.61.81,1.22,1.62,1.81,2.43l.19-.12c.45-.3.67-.6.64-.92a2,2,0,0,0-.42-1,3.58,3.58,0,0,0-.54-.56,1.23,1.23,0,0,0-.68-.26,1.77,1.77,0,0,0-.93.36Z" transform="translate(356.27 129.91)"/><path class="cls-7" d="M83.49,79q-2.53,1.41-5,2.9l-.8-1.14.4-.24c-.59-.83-1.18-1.65-1.78-2.47l-.41.25-.83-1.12c1.66-1,3.36-2,5.07-3l1.09,1.53-1.41.8-.27-.38-1.2.7c.17.25.35.49.52.73l1-.61.69,1-1.05.61.55.78,1.2-.69-.27-.39,1.39-.79C82.8,78,83.14,78.48,83.49,79Z" transform="translate(356.27 129.91)"/><path class="cls-7" d="M87.2,77c-1,.52-2,1-2.92,1.58L83.5,77.4l.44-.24c-.57-.85-1.15-1.69-1.73-2.53l-.44.24L81,73.72l3-1.63.76-.39.62-.28a4.23,4.23,0,0,1,.5-.17,2.2,2.2,0,0,1,1.27,0,1.76,1.76,0,0,1,1,.7,1.39,1.39,0,0,1,.23.81,1.29,1.29,0,0,1-.29.75l1.49.74c.14-.06.27-.13.4-.2.26.4.51.79.75,1.19l-2,1c-.82-.47-1.65-.93-2.49-1.39l-.67.36L86,76c.14-.07.28-.14.41-.22Zm-3-3.6.63.93.24-.13a4.18,4.18,0,0,0,.61-.36.52.52,0,0,0,.21-.3.46.46,0,0,0-.08-.36.55.55,0,0,0-.33-.24.73.73,0,0,0-.41,0,4.2,4.2,0,0,0-.68.33Z" transform="translate(356.27 129.91)"/><path class="cls-7" d="M95.39,72.93,93.07,74c-.24-.4-.49-.8-.74-1.2l.49-.23c-.54-.88-1.09-1.74-1.64-2.61l-.5.24L89.91,69l2.71-1.3q1.89.83,3.75,1.68c-.29-.48-.58-1-.88-1.44l-.47.21L94.26,67l2.36-1.06.75,1.22-.51.22q1.2,2,2.36,3.94l-1.9.84q-2.11-1-4.27-2c.37.59.74,1.18,1.1,1.77l.5-.24Z" transform="translate(356.27 129.91)"/><path class="cls-7" d="M98.89,68.14a2.63,2.63,0,0,1-.39-1.39,2.56,2.56,0,0,1,.5-1.48,3.06,3.06,0,0,1,.42-.46,6.31,6.31,0,0,1,.54-.39,5.37,5.37,0,0,1,.68-.33,4.14,4.14,0,0,1,3-.2,4.07,4.07,0,0,1,1.17.62,3,3,0,0,1,.8.91,2.48,2.48,0,0,1,.14,2.25,3.32,3.32,0,0,1-2,1.76,4.28,4.28,0,0,1-2.82.23A3.24,3.24,0,0,1,98.89,68.14Zm2.55-1.07a3.21,3.21,0,0,0,.87,1.08.8.8,0,0,0,.75.07.6.6,0,0,0,.41-.53,2.74,2.74,0,0,0-.48-1.25,3.1,3.1,0,0,0-.87-1.08.77.77,0,0,0-.76-.07.58.58,0,0,0-.41.53A2.84,2.84,0,0,0,101.44,67.07Z" transform="translate(356.27 129.91)"/><path class="cls-7" d="M111.3,66.55l-1.91.69q-1.94-1.72-3.94-3.4L105,64c-.24-.42-.47-.83-.72-1.25l3.18-1.19c.24.42.48.84.71,1.26l-.46.16,2,2c-.1-.87-.21-1.73-.32-2.6l-.46.16-.7-1.26,2.71-.95.69,1.27-.46.16c.73.65,1.45,1.31,2.17,2-.16-.85-.31-1.7-.47-2.54l-.45.15c-.23-.43-.46-.85-.7-1.27q1.27-.44,2.55-.84c.23.42.46.85.68,1.28l-.43.14c.12,1.56.24,3.12.35,4.69L113,66l-1.91-1.76C111.14,65,111.22,65.78,111.3,66.55Z" transform="translate(356.27 129.91)"/><text x="356.27" y="129.91"/></svg>